# xmcd CD database file
#
# Track frame offsets:
#	150
#	23112
#	42930
#	65080
#	91408
#	113785
#	137242
#	161983
#	184228
#	205823
#	225520
#	246977
#	268481
#	290748
#	309873
#	328536
#
# Disc length: 4657 seconds
#
# Revision: 0
# Processed by: cddbd v1.5.2PL0 Copyright (c) Steve Scherf et al.
# Submitted via: CDex 1.70beta2
#
DISCID=f3122f10
DTITLE=Tommy Olivencia - Las 32 Mas Grandes - Disc 2
DYEAR=2004
DGENRE=Salsa
TTITLE0=Como Sube La Gasolina
TTITLE1=Periquito Pin Pin
TTITLE2=No Tires La Primera Piedra
TTITLE3=Alejate De Mi
TTITLE4=Adivinanza
TTITLE5=Lo Dudo
TTITLE6=Cosas Nativas
TTITLE7=Misteriosa Mujer
TTITLE8=El Santero
TTITLE9=Pachuco
TTITLE10=No Que No
TTITLE11=Recordando Detalles
TTITLE12=Asi es Que Me Gusta
TTITLE13=Contigo Es Distinto
TTITLE14=Señora
TTITLE15=Engañada
EXTD=YEAR: 2004
EXTT0=
EXTT1=
EXTT2=
EXTT3=
EXTT4=
EXTT5=
EXTT6=
EXTT7=
EXTT8=
EXTT9=
EXTT10=
EXTT11=
EXTT12=
EXTT13=
EXTT14=
EXTT15=
PLAYORDER=
